<svg width="250" height="48" viewBox="0 0 250 48" fill="none" xmlns="http://www.w3.org/2000/svg">
<path d="M11.8432 37.416C15.1554 37.416 17.8993 36.696 20.073 35.256C22.2468 33.814 23.3346 31.718 23.3346 28.968C23.1668 25.258 20.3743 22.476 14.9552 20.622L12.0434 19.428C11.4085 19.228 10.9555 19.032 10.6886 18.832C10.5653 18.7495 10.4643 18.6384 10.3945 18.5083C10.3247 18.3783 10.2882 18.2333 10.2883 18.086C10.2883 17.258 10.8403 16.846 11.9443 16.846C13.3153 16.846 14.3344 17.54 15.0037 18.932L22.4813 16.844C20.6756 12.404 17.1956 10.186 12.0434 10.186C8.96583 10.186 6.4059 10.982 4.36564 12.572C2.32537 14.16 1.30423 16.232 1.30423 18.78C1.30423 19.576 1.42151 20.312 1.65607 20.992C1.89063 21.672 2.24247 22.268 2.70957 22.78C3.17869 23.294 3.62961 23.74 4.06435 24.122C4.49909 24.502 5.05112 24.86 5.72244 25.19C6.38972 25.522 6.89928 25.762 7.25112 25.91C7.60296 26.06 8.08017 26.234 8.68072 26.432L9.53404 26.732L12.5469 27.824C13.2809 28.09 13.7602 28.312 13.9765 28.494C14.0822 28.5818 14.1663 28.6923 14.2224 28.817C14.2784 28.9418 14.305 29.0776 14.3 29.214C14.3 30.076 13.4831 30.508 11.8432 30.508C9.43495 30.508 7.99524 29.448 7.52815 27.328L0 29.018C0.936216 34.618 4.88531 37.418 11.8432 37.418V37.416ZM35.372 37.416C38.6841 37.416 41.1248 36.156 42.6979 33.64V36.87H53.0347V10.732H42.6979V25.044C42.6979 27.992 41.6768 29.464 39.6365 29.464C37.5619 29.464 36.5246 27.992 36.5246 25.044V10.732H26.1878V26.038C26.1878 33.624 29.2492 37.418 35.372 37.418V37.416ZM67.9333 36.87V22.56C67.9333 19.61 68.9524 18.136 70.9927 18.136C73.0673 18.136 74.1066 19.61 74.1066 22.56V36.87H84.4414V21.566C84.4414 13.98 81.382 10.186 75.2592 10.186C71.9471 10.186 69.5044 11.446 67.9333 13.962V10.732H57.5945V36.87H67.9333V36.87ZM99.0387 36.87V22.56C99.0387 19.61 100.058 18.136 102.1 18.136C104.173 18.136 105.21 19.61 105.21 22.56V36.87H115.549V21.566C115.549 13.98 112.487 10.186 106.365 10.186C103.053 10.186 100.61 11.446 99.0387 13.962V10.732H88.6999V36.87H99.0387V36.87ZM131.349 48L148.11 10.732H137.318L132.199 24.1L127.633 10.732H116.342L127.331 34.336L121.211 48H131.349ZM158.991 37.416C162.303 37.416 165.047 36.696 167.221 35.256C169.396 33.814 170.484 31.718 170.484 28.968C170.316 25.258 167.522 22.476 162.103 20.622L159.191 19.428C158.556 19.228 158.105 19.032 157.836 18.832C157.713 18.7495 157.612 18.6384 157.542 18.5083C157.472 18.3783 157.436 18.2333 157.436 18.086C157.436 17.258 157.988 16.846 159.092 16.846C160.463 16.846 161.484 17.54 162.153 18.932L169.631 16.844C167.823 12.404 164.345 10.186 159.193 10.186C156.116 10.186 153.556 10.982 151.515 12.572C149.473 14.162 148.454 16.232 148.454 18.782C148.454 19.578 148.571 20.314 148.804 20.994C149.038 21.674 149.39 22.27 149.859 22.782C150.326 23.296 150.779 23.742 151.214 24.124C151.649 24.504 152.201 24.862 152.87 25.192C153.537 25.524 154.049 25.764 154.401 25.912C154.751 26.062 155.23 26.236 155.83 26.434L156.684 26.734L159.695 27.826C160.431 28.092 160.908 28.314 161.124 28.496C161.23 28.5836 161.315 28.694 161.371 28.8188C161.428 28.9435 161.454 29.0794 161.45 29.216C161.45 30.078 160.631 30.51 158.991 30.51C156.585 30.51 155.145 29.45 154.676 27.33L147.148 29.018C148.086 34.618 152.033 37.418 158.991 37.418V37.416ZM178.807 9.142C180.647 9.142 182.069 8.712 183.074 7.85C184.075 6.99 184.578 5.896 184.578 4.57C184.578 3.214 184.093 2.11 183.122 1.268C182.152 0.42 180.714 0 178.807 0C176.9 0 175.461 0.422 174.49 1.268C173.519 2.112 173.034 3.214 173.034 4.572C173.034 5.896 173.538 6.99 174.541 7.852C175.546 8.712 176.967 9.142 178.807 9.142V9.142ZM183.976 36.87V10.732H173.635V36.87H183.974H183.976ZM199.626 37.416C203.139 37.416 205.646 36.156 207.152 33.64V36.87H217.489V0.944H207.152V14.012C205.646 11.462 203.139 10.186 199.624 10.186C196.08 10.186 193.125 11.47 190.768 14.038C188.41 16.604 187.229 19.858 187.229 23.802C187.229 27.742 188.41 30.998 190.768 33.566C193.125 36.132 196.08 37.416 199.624 37.416H199.626ZM202.437 29.616C200.963 29.616 199.784 29.068 198.898 27.976C198.011 26.882 197.568 25.49 197.568 23.802C197.568 22.112 198.003 20.722 198.872 19.628C199.776 18.534 200.963 17.988 202.435 17.988C203.907 17.988 205.086 18.534 205.974 19.628C206.859 20.72 207.302 22.112 207.302 23.802C207.302 25.49 206.859 26.882 205.974 27.976C205.086 29.068 203.907 29.616 202.435 29.616H202.437ZM236.201 37.416C241.453 37.416 245.551 35.908 248.496 32.896L244.229 27.23C242.122 28.92 239.746 29.764 237.103 29.764C235.097 29.764 233.466 29.316 232.21 28.424C230.956 27.528 230.329 26.666 230.329 25.838H249.749C249.917 25.242 250 24.464 250 23.504C250 19.396 248.637 16.15 245.911 13.764C243.184 11.378 239.698 10.186 235.447 10.186C230.898 10.186 227.302 11.528 224.659 14.212C222.017 16.894 220.694 20.124 220.694 23.9C220.694 27.776 222.089 30.998 224.884 33.566C227.678 36.132 231.45 37.416 236.201 37.416V37.416ZM240.666 21.118H230.329C230.396 19.892 230.932 18.958 231.935 18.31C232.938 17.664 234.127 17.342 235.498 17.342C236.869 17.342 238.058 17.672 239.061 18.336C240.066 18.998 240.599 19.926 240.666 21.118Z" fill="#005949"/>
</svg>
